<mxfile host="65bd71144e">
    <diagram id="8oqcVFRpQoKrfao5Ae9p" name="Page-1">
        <mxGraphModel dx="1120" dy="585" grid="1" gridSize="10" guides="1" tooltips="1" connect="1" arrows="1" fold="1" page="1" pageScale="1" pageWidth="850" pageHeight="1100" math="0" shadow="0">
            <root>
                <mxCell id="0"/>
                <mxCell id="1" parent="0"/>
                <mxCell id="192" value="se_encontra" style="rhombus;whiteSpace=wrap;html=1;" vertex="1" parent="1">
                    <mxGeometry x="995" y="767.5" width="110" height="80" as="geometry"/>
                </mxCell>
                <mxCell id="130" value="passa_por" style="rhombus;whiteSpace=wrap;html=1;" vertex="1" parent="1">
                    <mxGeometry x="1315" y="767.5" width="110" height="75" as="geometry"/>
                </mxCell>
                <mxCell id="116" value="possui" style="rhombus;whiteSpace=wrap;html=1;" vertex="1" parent="1">
                    <mxGeometry x="975" y="585" width="110" height="80" as="geometry"/>
                </mxCell>
                <mxCell id="12" value="PACIENTE" style="rounded=0;whiteSpace=wrap;html=1;" vertex="1" parent="1">
                    <mxGeometry x="1130" y="680" width="110" height="40" as="geometry"/>
                </mxCell>
                <mxCell id="14" value="MEDICO" style="rounded=0;whiteSpace=wrap;html=1;" vertex="1" parent="1">
                    <mxGeometry x="1330" y="220" width="110" height="40" as="geometry"/>
                </mxCell>
                <mxCell id="211" value="" style="edgeStyle=none;html=1;fontFamily=Helvetica;fontSize=12;fontColor=default;" edge="1" parent="1" source="15" target="140">
                    <mxGeometry relative="1" as="geometry"/>
                </mxCell>
                <mxCell id="15" value="CONSULTA" style="rounded=0;whiteSpace=wrap;html=1;" vertex="1" parent="1">
                    <mxGeometry x="1510" y="680" width="110" height="40" as="geometry"/>
                </mxCell>
                <mxCell id="16" value="DIAGNOSTICO&lt;span style=&quot;color: rgba(0, 0, 0, 0); font-family: monospace; font-size: 0px; text-align: start;&quot;&gt;%3CmxGraphModel%3E%3Croot%3E%3CmxCell%20id%3D%220%22%2F%3E%3CmxCell%20id%3D%221%22%20parent%3D%220%22%2F%3E%3CmxCell%20id%3D%222%22%20value%3D%22CONSULTA%22%20style%3D%22rounded%3D0%3BwhiteSpace%3Dwrap%3Bhtml%3D1%3B%22%20vertex%3D%221%22%20parent%3D%221%22%3E%3CmxGeometry%20x%3D%22315%22%20y%3D%22230%22%20width%3D%22110%22%20height%3D%2240%22%20as%3D%22geometry%22%2F%3E%3C%2FmxCell%3E%3C%2Froot%3E%3C%2FmxGraphModel%3E&lt;/span&gt;" style="rounded=0;whiteSpace=wrap;html=1;" vertex="1" parent="1">
                    <mxGeometry x="1525" y="315" width="110" height="40" as="geometry"/>
                </mxCell>
                <mxCell id="17" value="EXAME" style="rounded=0;whiteSpace=wrap;html=1;" vertex="1" parent="1">
                    <mxGeometry x="1180" y="395" width="110" height="40" as="geometry"/>
                </mxCell>
                <mxCell id="18" value="ALA" style="rounded=0;whiteSpace=wrap;html=1;" vertex="1" parent="1">
                    <mxGeometry x="565" y="445" width="110" height="40" as="geometry"/>
                </mxCell>
                <mxCell id="19" value="ENFERMEIRO" style="rounded=0;whiteSpace=wrap;html=1;" vertex="1" parent="1">
                    <mxGeometry x="187.5" y="445" width="110" height="40" as="geometry"/>
                </mxCell>
                <mxCell id="20" value="MEDICAMENTO" style="rounded=0;whiteSpace=wrap;html=1;" vertex="1" parent="1">
                    <mxGeometry x="45" y="70" width="110" height="40" as="geometry"/>
                </mxCell>
                <mxCell id="21" value="FAMACIA" style="rounded=0;whiteSpace=wrap;html=1;" vertex="1" parent="1">
                    <mxGeometry x="270" y="205" width="110" height="40" as="geometry"/>
                </mxCell>
                <mxCell id="22" value="EQUIPE" style="rounded=0;whiteSpace=wrap;html=1;" vertex="1" parent="1">
                    <mxGeometry x="460" y="85" width="110" height="40" as="geometry"/>
                </mxCell>
                <mxCell id="24" value="RESTAURANTE" style="rounded=0;whiteSpace=wrap;html=1;" vertex="1" parent="1">
                    <mxGeometry x="800" y="260" width="110" height="40" as="geometry"/>
                </mxCell>
                <mxCell id="27" value="EVOLUIU" style="rounded=0;whiteSpace=wrap;html=1;" vertex="1" parent="1">
                    <mxGeometry x="750" y="975" width="110" height="40" as="geometry"/>
                </mxCell>
                <mxCell id="28" value="ESTAGNOU" style="rounded=0;whiteSpace=wrap;html=1;" vertex="1" parent="1">
                    <mxGeometry x="880" y="1040" width="110" height="40" as="geometry"/>
                </mxCell>
                <mxCell id="29" value="REGREDIU" style="rounded=0;whiteSpace=wrap;html=1;" vertex="1" parent="1">
                    <mxGeometry x="1010" y="975" width="110" height="40" as="geometry"/>
                </mxCell>
                <mxCell id="30" value="passa_por" style="rhombus;whiteSpace=wrap;html=1;" vertex="1" parent="1">
                    <mxGeometry x="1320" y="770" width="100" height="70" as="geometry"/>
                </mxCell>
                <mxCell id="31" value="" style="endArrow=none;html=1;" edge="1" parent="1" source="130" target="12">
                    <mxGeometry width="50" height="50" relative="1" as="geometry">
                        <mxPoint x="1320" y="755" as="sourcePoint"/>
                        <mxPoint x="940" y="880" as="targetPoint"/>
                    </mxGeometry>
                </mxCell>
                <mxCell id="209" value="1,1" style="edgeLabel;html=1;align=center;verticalAlign=middle;resizable=0;points=[];fontSize=12;fontFamily=Helvetica;fontColor=default;" vertex="1" connectable="0" parent="31">
                    <mxGeometry x="0.6156" y="-2" relative="1" as="geometry">
                        <mxPoint x="26" y="4" as="offset"/>
                    </mxGeometry>
                </mxCell>
                <mxCell id="33" value="passa_por" style="rhombus;whiteSpace=wrap;html=1;" vertex="1" parent="1">
                    <mxGeometry x="1320" y="665" width="100" height="70" as="geometry"/>
                </mxCell>
                <mxCell id="34" value="" style="endArrow=none;html=1;" edge="1" parent="1" source="33" target="12">
                    <mxGeometry width="50" height="50" relative="1" as="geometry">
                        <mxPoint x="1195" y="810" as="sourcePoint"/>
                        <mxPoint x="1195" y="730" as="targetPoint"/>
                    </mxGeometry>
                </mxCell>
                <mxCell id="212" value="1,1" style="edgeLabel;html=1;align=center;verticalAlign=middle;resizable=0;points=[];fontSize=12;fontFamily=Helvetica;fontColor=default;" vertex="1" connectable="0" parent="34">
                    <mxGeometry x="0.7344" y="-3" relative="1" as="geometry">
                        <mxPoint x="20" y="-12" as="offset"/>
                    </mxGeometry>
                </mxCell>
                <mxCell id="35" value="" style="endArrow=none;html=1;" edge="1" parent="1" source="15" target="33">
                    <mxGeometry width="50" height="50" relative="1" as="geometry">
                        <mxPoint x="1330" y="710" as="sourcePoint"/>
                        <mxPoint x="1390" y="700" as="targetPoint"/>
                    </mxGeometry>
                </mxCell>
                <mxCell id="210" value="0,N" style="edgeLabel;html=1;align=center;verticalAlign=middle;resizable=0;points=[];fontSize=12;fontFamily=Helvetica;fontColor=default;" vertex="1" connectable="0" parent="35">
                    <mxGeometry x="-0.588" relative="1" as="geometry">
                        <mxPoint y="-20" as="offset"/>
                    </mxGeometry>
                </mxCell>
                <mxCell id="36" value="realiza" style="rhombus;whiteSpace=wrap;html=1;" vertex="1" parent="1">
                    <mxGeometry x="1430" y="425" width="100" height="70" as="geometry"/>
                </mxCell>
                <mxCell id="37" value="da" style="rhombus;whiteSpace=wrap;html=1;" vertex="1" parent="1">
                    <mxGeometry x="1530" y="205" width="100" height="70" as="geometry"/>
                </mxCell>
                <mxCell id="38" value="solicita" style="rhombus;whiteSpace=wrap;html=1;" vertex="1" parent="1">
                    <mxGeometry x="1185" y="255" width="100" height="70" as="geometry"/>
                </mxCell>
                <mxCell id="40" value="solicita" style="rhombus;whiteSpace=wrap;html=1;" vertex="1" parent="1">
                    <mxGeometry x="580" y="160" width="100" height="70" as="geometry"/>
                </mxCell>
                <mxCell id="41" value="" style="endArrow=none;html=1;" edge="1" parent="1" source="36" target="14">
                    <mxGeometry width="50" height="50" relative="1" as="geometry">
                        <mxPoint x="1280" y="470" as="sourcePoint"/>
                        <mxPoint x="1330" y="420" as="targetPoint"/>
                    </mxGeometry>
                </mxCell>
                <mxCell id="217" value="1,1" style="edgeLabel;html=1;align=center;verticalAlign=middle;resizable=0;points=[];fontSize=12;fontFamily=Helvetica;fontColor=default;" vertex="1" connectable="0" parent="41">
                    <mxGeometry x="0.8519" y="2" relative="1" as="geometry">
                        <mxPoint x="-12" y="1" as="offset"/>
                    </mxGeometry>
                </mxCell>
                <mxCell id="42" value="" style="endArrow=none;html=1;" edge="1" parent="1" source="17" target="38">
                    <mxGeometry width="50" height="50" relative="1" as="geometry">
                        <mxPoint x="1561.8043087971273" y="434.23698384201066" as="sourcePoint"/>
                        <mxPoint x="1480.2439024390244" y="275" as="targetPoint"/>
                    </mxGeometry>
                </mxCell>
                <mxCell id="214" value="0,N" style="edgeLabel;html=1;align=center;verticalAlign=middle;resizable=0;points=[];fontSize=12;fontFamily=Helvetica;fontColor=default;" vertex="1" connectable="0" parent="42">
                    <mxGeometry x="-0.3166" relative="1" as="geometry">
                        <mxPoint x="15" y="9" as="offset"/>
                    </mxGeometry>
                </mxCell>
                <mxCell id="43" value="" style="endArrow=none;html=1;" edge="1" parent="1" source="38" target="14">
                    <mxGeometry width="50" height="50" relative="1" as="geometry">
                        <mxPoint x="1496.8043087971273" y="439.23698384201066" as="sourcePoint"/>
                        <mxPoint x="1415.2439024390244" y="280" as="targetPoint"/>
                    </mxGeometry>
                </mxCell>
                <mxCell id="215" value="1,1" style="edgeLabel;html=1;align=center;verticalAlign=middle;resizable=0;points=[];fontSize=12;fontFamily=Helvetica;fontColor=default;" vertex="1" connectable="0" parent="43">
                    <mxGeometry x="0.5696" y="-2" relative="1" as="geometry">
                        <mxPoint x="13" y="10" as="offset"/>
                    </mxGeometry>
                </mxCell>
                <mxCell id="44" value="" style="endArrow=none;html=1;" edge="1" parent="1" source="14" target="40">
                    <mxGeometry width="50" height="50" relative="1" as="geometry">
                        <mxPoint x="1376.8043087971273" y="444.23698384201066" as="sourcePoint"/>
                        <mxPoint x="970" y="235" as="targetPoint"/>
                        <Array as="points">
                            <mxPoint x="1255" y="195"/>
                        </Array>
                    </mxGeometry>
                </mxCell>
                <mxCell id="45" value="" style="endArrow=none;html=1;" edge="1" parent="1" source="14" target="37">
                    <mxGeometry width="50" height="50" relative="1" as="geometry">
                        <mxPoint x="1486.8043087971273" y="429.23698384201066" as="sourcePoint"/>
                        <mxPoint x="1405.2439024390244" y="270" as="targetPoint"/>
                    </mxGeometry>
                </mxCell>
                <mxCell id="222" value="1,1" style="edgeLabel;html=1;align=center;verticalAlign=middle;resizable=0;points=[];fontSize=12;fontFamily=Helvetica;fontColor=default;" vertex="1" connectable="0" parent="45">
                    <mxGeometry x="-0.625" y="3" relative="1" as="geometry">
                        <mxPoint x="-2" y="-7" as="offset"/>
                    </mxGeometry>
                </mxCell>
                <mxCell id="46" value="" style="endArrow=none;html=1;" edge="1" parent="1" source="16" target="37">
                    <mxGeometry width="50" height="50" relative="1" as="geometry">
                        <mxPoint x="1496.8043087971273" y="439.23698384201066" as="sourcePoint"/>
                        <mxPoint x="1415.2439024390244" y="280" as="targetPoint"/>
                    </mxGeometry>
                </mxCell>
                <mxCell id="221" value="1,1" style="edgeLabel;html=1;align=center;verticalAlign=middle;resizable=0;points=[];fontSize=12;fontFamily=Helvetica;fontColor=default;" vertex="1" connectable="0" parent="46">
                    <mxGeometry x="-0.4557" y="-2" relative="1" as="geometry">
                        <mxPoint x="8" y="1" as="offset"/>
                    </mxGeometry>
                </mxCell>
                <mxCell id="48" value="" style="endArrow=none;html=1;" edge="1" parent="1" source="40" target="18">
                    <mxGeometry width="50" height="50" relative="1" as="geometry">
                        <mxPoint x="1226.8043087971273" y="444.23698384201066" as="sourcePoint"/>
                        <mxPoint x="1145.2439024390244" y="285" as="targetPoint"/>
                    </mxGeometry>
                </mxCell>
                <mxCell id="223" value="0,1" style="edgeLabel;html=1;align=center;verticalAlign=middle;resizable=0;points=[];fontSize=12;fontFamily=Helvetica;fontColor=default;" vertex="1" connectable="0" parent="48">
                    <mxGeometry x="0.7288" y="1" relative="1" as="geometry">
                        <mxPoint x="-8" y="-171" as="offset"/>
                    </mxGeometry>
                </mxCell>
                <mxCell id="49" value="é_internado" style="rhombus;whiteSpace=wrap;html=1;" vertex="1" parent="1">
                    <mxGeometry x="570" y="585" width="100" height="70" as="geometry"/>
                </mxCell>
                <mxCell id="50" value="faz" style="rhombus;whiteSpace=wrap;html=1;" vertex="1" parent="1">
                    <mxGeometry x="1185" y="515" width="100" height="70" as="geometry"/>
                </mxCell>
                <mxCell id="51" value="" style="endArrow=none;html=1;" edge="1" parent="1" source="50" target="17">
                    <mxGeometry width="50" height="50" relative="1" as="geometry">
                        <mxPoint x="1232" y="455" as="sourcePoint"/>
                        <mxPoint x="1280.2112676056338" y="374.6478873239437" as="targetPoint"/>
                    </mxGeometry>
                </mxCell>
                <mxCell id="204" value="0,N" style="edgeLabel;html=1;align=center;verticalAlign=middle;resizable=0;points=[];fontSize=12;fontFamily=Helvetica;fontColor=default;" vertex="1" connectable="0" parent="51">
                    <mxGeometry x="0.6541" y="-1" relative="1" as="geometry">
                        <mxPoint x="14" y="1" as="offset"/>
                    </mxGeometry>
                </mxCell>
                <mxCell id="53" value="" style="endArrow=none;html=1;" edge="1" parent="1" source="15" target="36">
                    <mxGeometry width="50" height="50" relative="1" as="geometry">
                        <mxPoint x="1556.524926686217" y="442.93255131964816" as="sourcePoint"/>
                        <mxPoint x="1411.744186046512" y="270" as="targetPoint"/>
                    </mxGeometry>
                </mxCell>
                <mxCell id="216" value="0,N" style="edgeLabel;html=1;align=center;verticalAlign=middle;resizable=0;points=[];fontSize=12;fontFamily=Helvetica;fontColor=default;" vertex="1" connectable="0" parent="53">
                    <mxGeometry x="-0.7507" y="-3" relative="1" as="geometry">
                        <mxPoint x="13" y="5" as="offset"/>
                    </mxGeometry>
                </mxCell>
                <mxCell id="54" value="" style="endArrow=none;html=1;" edge="1" parent="1" source="50" target="12">
                    <mxGeometry width="50" height="50" relative="1" as="geometry">
                        <mxPoint x="1195" y="530" as="sourcePoint"/>
                        <mxPoint x="1195" y="450" as="targetPoint"/>
                    </mxGeometry>
                </mxCell>
                <mxCell id="199" value="1,1" style="edgeLabel;html=1;align=center;verticalAlign=middle;resizable=0;points=[];fontSize=12;fontFamily=Helvetica;fontColor=default;" vertex="1" connectable="0" parent="54">
                    <mxGeometry x="0.7444" y="-1" relative="1" as="geometry">
                        <mxPoint x="25" y="-17" as="offset"/>
                    </mxGeometry>
                </mxCell>
                <mxCell id="55" value="" style="endArrow=none;html=1;" edge="1" parent="1" source="12" target="49">
                    <mxGeometry width="50" height="50" relative="1" as="geometry">
                        <mxPoint x="925" y="535" as="sourcePoint"/>
                        <mxPoint x="925" y="455" as="targetPoint"/>
                        <Array as="points">
                            <mxPoint x="730" y="665"/>
                        </Array>
                    </mxGeometry>
                </mxCell>
                <mxCell id="200" value="0,N" style="edgeLabel;html=1;align=center;verticalAlign=middle;resizable=0;points=[];fontSize=12;fontFamily=Helvetica;fontColor=default;" vertex="1" connectable="0" parent="55">
                    <mxGeometry x="-0.8572" y="-3" relative="1" as="geometry">
                        <mxPoint x="-26" y="-10" as="offset"/>
                    </mxGeometry>
                </mxCell>
                <mxCell id="56" value="" style="endArrow=none;html=1;" edge="1" parent="1" source="49" target="18">
                    <mxGeometry width="50" height="50" relative="1" as="geometry">
                        <mxPoint x="935" y="545" as="sourcePoint"/>
                        <mxPoint x="935" y="465" as="targetPoint"/>
                    </mxGeometry>
                </mxCell>
                <mxCell id="205" value="0,1" style="edgeLabel;html=1;align=center;verticalAlign=middle;resizable=0;points=[];fontSize=12;fontFamily=Helvetica;fontColor=default;" vertex="1" connectable="0" parent="56">
                    <mxGeometry x="0.6788" y="-3" relative="1" as="geometry">
                        <mxPoint x="7" y="-1" as="offset"/>
                    </mxGeometry>
                </mxCell>
                <mxCell id="57" value="possui" style="rhombus;whiteSpace=wrap;html=1;" vertex="1" parent="1">
                    <mxGeometry x="380" y="430" width="100" height="70" as="geometry"/>
                </mxCell>
                <mxCell id="59" value="" style="endArrow=none;html=1;" edge="1" parent="1" source="57" target="19">
                    <mxGeometry width="50" height="50" relative="1" as="geometry">
                        <mxPoint x="630" y="670" as="sourcePoint"/>
                        <mxPoint x="630" y="495" as="targetPoint"/>
                    </mxGeometry>
                </mxCell>
                <mxCell id="230" value="1,N" style="edgeLabel;html=1;align=center;verticalAlign=middle;resizable=0;points=[];fontSize=12;fontFamily=Helvetica;fontColor=default;" vertex="1" connectable="0" parent="59">
                    <mxGeometry x="0.6313" y="-1" relative="1" as="geometry">
                        <mxPoint y="-14" as="offset"/>
                    </mxGeometry>
                </mxCell>
                <mxCell id="60" value="" style="endArrow=none;html=1;" edge="1" parent="1" source="18" target="57">
                    <mxGeometry width="50" height="50" relative="1" as="geometry">
                        <mxPoint x="380" y="475" as="sourcePoint"/>
                        <mxPoint x="302.5" y="475" as="targetPoint"/>
                    </mxGeometry>
                </mxCell>
                <mxCell id="231" value="0,M" style="edgeLabel;html=1;align=center;verticalAlign=middle;resizable=0;points=[];fontSize=12;fontFamily=Helvetica;fontColor=default;" vertex="1" connectable="0" parent="60">
                    <mxGeometry x="-0.3774" y="2" relative="1" as="geometry">
                        <mxPoint x="-48" y="-17" as="offset"/>
                    </mxGeometry>
                </mxCell>
                <mxCell id="64" value="verificar_alergias" style="rhombus;whiteSpace=wrap;html=1;" vertex="1" parent="1">
                    <mxGeometry x="380" y="665" width="100" height="70" as="geometry"/>
                </mxCell>
                <mxCell id="65" value="" style="endArrow=none;html=1;" edge="1" parent="1" source="64" target="19">
                    <mxGeometry width="50" height="50" relative="1" as="geometry">
                        <mxPoint x="390" y="475" as="sourcePoint"/>
                        <mxPoint x="307.5" y="475" as="targetPoint"/>
                    </mxGeometry>
                </mxCell>
                <mxCell id="208" value="1,1" style="edgeLabel;html=1;align=center;verticalAlign=middle;resizable=0;points=[];fontSize=12;fontFamily=Helvetica;fontColor=default;" vertex="1" connectable="0" parent="65">
                    <mxGeometry x="0.8735" y="-3" relative="1" as="geometry">
                        <mxPoint x="12" as="offset"/>
                    </mxGeometry>
                </mxCell>
                <mxCell id="66" value="" style="endArrow=none;html=1;" edge="1" parent="1" source="12" target="64">
                    <mxGeometry width="50" height="50" relative="1" as="geometry">
                        <mxPoint x="860" y="688.5964912280701" as="sourcePoint"/>
                        <mxPoint x="665.0615114235502" y="630.456942003515" as="targetPoint"/>
                    </mxGeometry>
                </mxCell>
                <mxCell id="206" value="0,N" style="edgeLabel;html=1;align=center;verticalAlign=middle;resizable=0;points=[];fontSize=12;fontFamily=Helvetica;fontColor=default;" vertex="1" connectable="0" parent="66">
                    <mxGeometry x="-0.8455" y="3" relative="1" as="geometry">
                        <mxPoint y="12" as="offset"/>
                    </mxGeometry>
                </mxCell>
                <mxCell id="67" value="medicamentos_&lt;br&gt;alergicos" style="ellipse;whiteSpace=wrap;html=1;rotation=0;" vertex="1" parent="1">
                    <mxGeometry x="440" y="595" width="100" height="50" as="geometry"/>
                </mxCell>
                <mxCell id="68" value="" style="endArrow=none;html=1;" edge="1" parent="1" source="67" target="64">
                    <mxGeometry width="50" height="50" relative="1" as="geometry">
                        <mxPoint x="860" y="704.421052631579" as="sourcePoint"/>
                        <mxPoint x="489.25925925925935" y="700.5185185185185" as="targetPoint"/>
                    </mxGeometry>
                </mxCell>
                <mxCell id="70" value="possui" style="rhombus;whiteSpace=wrap;html=1;" vertex="1" parent="1">
                    <mxGeometry x="390" y="300" width="100" height="70" as="geometry"/>
                </mxCell>
                <mxCell id="71" value="" style="endArrow=none;html=1;" edge="1" parent="1" source="70" target="18">
                    <mxGeometry width="50" height="50" relative="1" as="geometry">
                        <mxPoint x="764.090909090909" y="273.86363636363626" as="sourcePoint"/>
                        <mxPoint x="643.3333333333333" y="455" as="targetPoint"/>
                    </mxGeometry>
                </mxCell>
                <mxCell id="229" value="1.1" style="edgeLabel;html=1;align=center;verticalAlign=middle;resizable=0;points=[];fontSize=12;fontFamily=Helvetica;fontColor=default;" vertex="1" connectable="0" parent="71">
                    <mxGeometry x="0.654" y="-3" relative="1" as="geometry">
                        <mxPoint x="-103" y="-61" as="offset"/>
                    </mxGeometry>
                </mxCell>
                <mxCell id="72" value="" style="endArrow=none;html=1;" edge="1" parent="1" source="21" target="70">
                    <mxGeometry width="50" height="50" relative="1" as="geometry">
                        <mxPoint x="504.93902439024396" y="269.54268292682923" as="sourcePoint"/>
                        <mxPoint x="617.8260869565215" y="455" as="targetPoint"/>
                    </mxGeometry>
                </mxCell>
                <mxCell id="228" value="1,1" style="edgeLabel;html=1;align=center;verticalAlign=middle;resizable=0;points=[];fontSize=12;fontFamily=Helvetica;fontColor=default;" vertex="1" connectable="0" parent="72">
                    <mxGeometry x="-0.4646" y="3" relative="1" as="geometry">
                        <mxPoint x="8" y="-4" as="offset"/>
                    </mxGeometry>
                </mxCell>
                <mxCell id="73" value="possui" style="rhombus;whiteSpace=wrap;html=1;" vertex="1" parent="1">
                    <mxGeometry x="275" y="55" width="100" height="70" as="geometry"/>
                </mxCell>
                <mxCell id="74" value="" style="endArrow=none;html=1;" edge="1" parent="1" source="21" target="73">
                    <mxGeometry width="50" height="50" relative="1" as="geometry">
                        <mxPoint x="490" y="85" as="sourcePoint"/>
                        <mxPoint x="490" y="210" as="targetPoint"/>
                    </mxGeometry>
                </mxCell>
                <mxCell id="233" value="1,1" style="edgeLabel;html=1;align=center;verticalAlign=middle;resizable=0;points=[];fontSize=12;fontFamily=Helvetica;fontColor=default;" vertex="1" connectable="0" parent="74">
                    <mxGeometry x="-0.7658" y="-1" relative="1" as="geometry">
                        <mxPoint x="-13" y="-5" as="offset"/>
                    </mxGeometry>
                </mxCell>
                <mxCell id="75" value="" style="endArrow=none;html=1;" edge="1" parent="1" source="20" target="73">
                    <mxGeometry width="50" height="50" relative="1" as="geometry">
                        <mxPoint x="500" y="95" as="sourcePoint"/>
                        <mxPoint x="500" y="220" as="targetPoint"/>
                    </mxGeometry>
                </mxCell>
                <mxCell id="232" value="0,N" style="edgeLabel;html=1;align=center;verticalAlign=middle;resizable=0;points=[];fontSize=12;fontFamily=Helvetica;fontColor=default;" vertex="1" connectable="0" parent="75">
                    <mxGeometry x="-0.3638" y="-2" relative="1" as="geometry">
                        <mxPoint y="-12" as="offset"/>
                    </mxGeometry>
                </mxCell>
                <mxCell id="76" value="administra" style="rhombus;whiteSpace=wrap;html=1;" vertex="1" parent="1">
                    <mxGeometry x="50" y="430" width="100" height="70" as="geometry"/>
                </mxCell>
                <mxCell id="77" value="1,1" style="endArrow=none;html=1;" edge="1" parent="1" source="76" target="19">
                    <mxGeometry x="0.0667" y="-10" width="50" height="50" relative="1" as="geometry">
                        <mxPoint x="504.93902439024396" y="269.54268292682923" as="sourcePoint"/>
                        <mxPoint x="617.8260869565215" y="455" as="targetPoint"/>
                        <mxPoint as="offset"/>
                    </mxGeometry>
                </mxCell>
                <mxCell id="78" value="" style="endArrow=none;html=1;" edge="1" parent="1" source="20" target="76">
                    <mxGeometry width="50" height="50" relative="1" as="geometry">
                        <mxPoint x="514.939024390244" y="279.54268292682923" as="sourcePoint"/>
                        <mxPoint x="627.8260869565215" y="465" as="targetPoint"/>
                    </mxGeometry>
                </mxCell>
                <mxCell id="234" value="0,N" style="edgeLabel;html=1;align=center;verticalAlign=middle;resizable=0;points=[];fontSize=12;fontFamily=Helvetica;fontColor=default;" vertex="1" connectable="0" parent="78">
                    <mxGeometry x="-0.1685" y="1" relative="1" as="geometry">
                        <mxPoint x="-21" y="193" as="offset"/>
                    </mxGeometry>
                </mxCell>
                <mxCell id="79" value="zela" style="rhombus;whiteSpace=wrap;html=1;" vertex="1" parent="1">
                    <mxGeometry x="465" y="230" width="100" height="70" as="geometry"/>
                </mxCell>
                <mxCell id="80" value="" style="endArrow=none;html=1;" edge="1" parent="1" source="79" target="18">
                    <mxGeometry width="50" height="50" relative="1" as="geometry">
                        <mxPoint x="504.93902439024396" y="269.54268292682923" as="sourcePoint"/>
                        <mxPoint x="617.8260869565215" y="455" as="targetPoint"/>
                    </mxGeometry>
                </mxCell>
                <mxCell id="226" value="1,N" style="edgeLabel;html=1;align=center;verticalAlign=middle;resizable=0;points=[];fontSize=12;fontFamily=Helvetica;fontColor=default;" vertex="1" connectable="0" parent="80">
                    <mxGeometry x="0.7074" y="-3" relative="1" as="geometry">
                        <mxPoint x="-45" y="-124" as="offset"/>
                    </mxGeometry>
                </mxCell>
                <mxCell id="81" value="" style="endArrow=none;html=1;" edge="1" parent="1" source="22" target="79">
                    <mxGeometry width="50" height="50" relative="1" as="geometry">
                        <mxPoint x="630" y="280" as="sourcePoint"/>
                        <mxPoint x="630" y="455" as="targetPoint"/>
                    </mxGeometry>
                </mxCell>
                <mxCell id="227" value="1,1" style="edgeLabel;html=1;align=center;verticalAlign=middle;resizable=0;points=[];fontSize=12;fontFamily=Helvetica;fontColor=default;" vertex="1" connectable="0" parent="81">
                    <mxGeometry x="-0.7209" y="-3" relative="1" as="geometry">
                        <mxPoint x="18" y="-8" as="offset"/>
                    </mxGeometry>
                </mxCell>
                <mxCell id="83" value="possui" style="rhombus;whiteSpace=wrap;html=1;" vertex="1" parent="1">
                    <mxGeometry x="660" y="245" width="100" height="70" as="geometry"/>
                </mxCell>
                <mxCell id="85" value="" style="endArrow=none;html=1;" edge="1" parent="1" source="83" target="18">
                    <mxGeometry width="50" height="50" relative="1" as="geometry">
                        <mxPoint x="655.8167330677293" y="277.07171314741026" as="sourcePoint"/>
                        <mxPoint x="632.6086956521735" y="455" as="targetPoint"/>
                    </mxGeometry>
                </mxCell>
                <mxCell id="225" value="1,1" style="edgeLabel;html=1;align=center;verticalAlign=middle;resizable=0;points=[];fontSize=12;fontFamily=Helvetica;fontColor=default;" vertex="1" connectable="0" parent="85">
                    <mxGeometry x="0.7877" y="2" relative="1" as="geometry">
                        <mxPoint x="61" y="-106" as="offset"/>
                    </mxGeometry>
                </mxCell>
                <mxCell id="86" value="" style="endArrow=none;html=1;" edge="1" parent="1" source="24" target="83">
                    <mxGeometry width="50" height="50" relative="1" as="geometry">
                        <mxPoint x="495.6716417910443" y="269.0298507462687" as="sourcePoint"/>
                        <mxPoint x="616.9565217391305" y="455" as="targetPoint"/>
                    </mxGeometry>
                </mxCell>
                <mxCell id="224" value="1,1" style="edgeLabel;html=1;align=center;verticalAlign=middle;resizable=0;points=[];fontSize=12;fontFamily=Helvetica;fontColor=default;" vertex="1" connectable="0" parent="86">
                    <mxGeometry x="-0.4271" y="3" relative="1" as="geometry">
                        <mxPoint x="-1" y="-18" as="offset"/>
                    </mxGeometry>
                </mxCell>
                <mxCell id="87" value="possui" style="rhombus;whiteSpace=wrap;html=1;" vertex="1" parent="1">
                    <mxGeometry x="980" y="590" width="100" height="70" as="geometry"/>
                </mxCell>
                <mxCell id="88" value="" style="endArrow=none;html=1;" edge="1" parent="1" source="12" target="116">
                    <mxGeometry width="50" height="50" relative="1" as="geometry">
                        <mxPoint x="860" y="704.421052631579" as="sourcePoint"/>
                        <mxPoint x="489.2592592592591" y="700.5185185185187" as="targetPoint"/>
                    </mxGeometry>
                </mxCell>
                <mxCell id="197" value="1,1" style="edgeLabel;html=1;align=center;verticalAlign=middle;resizable=0;points=[];fontSize=12;fontFamily=Helvetica;fontColor=default;" vertex="1" connectable="0" parent="88">
                    <mxGeometry x="-0.5116" relative="1" as="geometry">
                        <mxPoint x="6" y="-11" as="offset"/>
                    </mxGeometry>
                </mxCell>
                <mxCell id="91" value="alimenta" style="rhombus;whiteSpace=wrap;html=1;" vertex="1" parent="1">
                    <mxGeometry x="805" y="380" width="100" height="70" as="geometry"/>
                </mxCell>
                <mxCell id="92" value="alimenta" style="rhombus;whiteSpace=wrap;html=1;" vertex="1" parent="1">
                    <mxGeometry x="950" y="380" width="100" height="70" as="geometry"/>
                </mxCell>
                <mxCell id="93" value="" style="endArrow=none;html=1;" edge="1" parent="1" source="91" target="24">
                    <mxGeometry width="50" height="50" relative="1" as="geometry">
                        <mxPoint x="1009.5195195195197" y="626.3363363363362" as="sourcePoint"/>
                        <mxPoint x="939.6153846153843" y="595" as="targetPoint"/>
                    </mxGeometry>
                </mxCell>
                <mxCell id="202" value="1,1" style="edgeLabel;html=1;align=center;verticalAlign=middle;resizable=0;points=[];fontSize=12;fontFamily=Helvetica;fontColor=default;" vertex="1" connectable="0" parent="93">
                    <mxGeometry x="0.6819" y="-2" relative="1" as="geometry">
                        <mxPoint x="13" y="3" as="offset"/>
                    </mxGeometry>
                </mxCell>
                <mxCell id="94" value="" style="endArrow=none;html=1;" edge="1" parent="1" source="92" target="24">
                    <mxGeometry width="50" height="50" relative="1" as="geometry">
                        <mxPoint x="876.3917525773195" y="392.52577319587635" as="sourcePoint"/>
                        <mxPoint x="867.2222222222222" y="310" as="targetPoint"/>
                    </mxGeometry>
                </mxCell>
                <mxCell id="201" value="1,1" style="edgeLabel;html=1;align=center;verticalAlign=middle;resizable=0;points=[];fontSize=12;fontFamily=Helvetica;fontColor=default;" vertex="1" connectable="0" parent="94">
                    <mxGeometry x="0.7884" y="4" relative="1" as="geometry">
                        <mxPoint x="26" y="2" as="offset"/>
                    </mxGeometry>
                </mxCell>
                <mxCell id="95" value="" style="endArrow=none;html=1;" edge="1" parent="1" source="91" target="120">
                    <mxGeometry width="50" height="50" relative="1" as="geometry">
                        <mxPoint x="1044.2369838420109" y="408.0341113105926" as="sourcePoint"/>
                        <mxPoint x="855" y="540" as="targetPoint"/>
                    </mxGeometry>
                </mxCell>
                <mxCell id="203" value="0,N" style="edgeLabel;html=1;align=center;verticalAlign=middle;resizable=0;points=[];fontSize=12;fontFamily=Helvetica;fontColor=default;" vertex="1" connectable="0" parent="95">
                    <mxGeometry x="0.6948" y="2" relative="1" as="geometry">
                        <mxPoint x="13" y="-1" as="offset"/>
                    </mxGeometry>
                </mxCell>
                <mxCell id="96" value="" style="endArrow=none;html=1;" edge="1" parent="1" source="92" target="12">
                    <mxGeometry width="50" height="50" relative="1" as="geometry">
                        <mxPoint x="1054.2369838420109" y="418.0341113105926" as="sourcePoint"/>
                        <mxPoint x="905.37037037037" y="320" as="targetPoint"/>
                    </mxGeometry>
                </mxCell>
                <mxCell id="198" value="0,N" style="edgeLabel;html=1;align=center;verticalAlign=middle;resizable=0;points=[];fontSize=12;fontFamily=Helvetica;fontColor=default;" vertex="1" connectable="0" parent="96">
                    <mxGeometry x="0.8944" y="1" relative="1" as="geometry">
                        <mxPoint x="-14" y="-46" as="offset"/>
                    </mxGeometry>
                </mxCell>
                <mxCell id="97" value="se_encontra" style="rhombus;whiteSpace=wrap;html=1;" vertex="1" parent="1">
                    <mxGeometry x="1000" y="772.5" width="100" height="70" as="geometry"/>
                </mxCell>
                <mxCell id="98" value="" style="endArrow=none;html=1;" edge="1" parent="1" source="12" target="192">
                    <mxGeometry width="50" height="50" relative="1" as="geometry">
                        <mxPoint x="1140" y="710" as="sourcePoint"/>
                        <mxPoint x="490" y="710" as="targetPoint"/>
                    </mxGeometry>
                </mxCell>
                <mxCell id="213" value="1,1" style="edgeLabel;html=1;align=center;verticalAlign=middle;resizable=0;points=[];fontSize=12;fontFamily=Helvetica;fontColor=default;" vertex="1" connectable="0" parent="98">
                    <mxGeometry x="-0.4392" y="-1" relative="1" as="geometry">
                        <mxPoint x="22" y="-3" as="offset"/>
                    </mxGeometry>
                </mxCell>
                <mxCell id="100" value="d" style="ellipse;whiteSpace=wrap;html=1;aspect=fixed;" vertex="1" parent="1">
                    <mxGeometry x="910" y="970" width="50" height="50" as="geometry"/>
                </mxCell>
                <mxCell id="101" value="" style="shape=link;html=1;" edge="1" parent="1" source="100" target="193">
                    <mxGeometry width="100" relative="1" as="geometry">
                        <mxPoint x="790" y="1125" as="sourcePoint"/>
                        <mxPoint x="935" y="945" as="targetPoint"/>
                    </mxGeometry>
                </mxCell>
                <mxCell id="102" value="" style="endArrow=none;html=1;" edge="1" parent="1" source="29" target="100">
                    <mxGeometry width="50" height="50" relative="1" as="geometry">
                        <mxPoint x="1039.4117647058824" y="840.5882352941176" as="sourcePoint"/>
                        <mxPoint x="965" y="915" as="targetPoint"/>
                    </mxGeometry>
                </mxCell>
                <mxCell id="103" value="" style="endArrow=none;html=1;" edge="1" parent="1" source="28" target="100">
                    <mxGeometry width="50" height="50" relative="1" as="geometry">
                        <mxPoint x="1031.842105263158" y="1105.0000000000002" as="sourcePoint"/>
                        <mxPoint x="963.9205751941922" y="1046.3404967586205" as="targetPoint"/>
                    </mxGeometry>
                </mxCell>
                <mxCell id="104" value="" style="endArrow=none;html=1;" edge="1" parent="1" source="100" target="27">
                    <mxGeometry width="50" height="50" relative="1" as="geometry">
                        <mxPoint x="937.105263157895" y="1105.0000000000002" as="sourcePoint"/>
                        <mxPoint x="942.3828803870488" y="1054.8626363230367" as="targetPoint"/>
                    </mxGeometry>
                </mxCell>
                <mxCell id="105" value="visualiza" style="rhombus;whiteSpace=wrap;html=1;" vertex="1" parent="1">
                    <mxGeometry x="1250" y="890" width="100" height="70" as="geometry"/>
                </mxCell>
                <mxCell id="107" value="" style="endArrow=none;html=1;" edge="1" parent="1" source="105" target="14">
                    <mxGeometry width="50" height="50" relative="1" as="geometry">
                        <mxPoint x="1478.3944153577659" y="443.12390924956367" as="sourcePoint"/>
                        <mxPoint x="1403.6363636363635" y="270" as="targetPoint"/>
                        <Array as="points">
                            <mxPoint x="1650" y="930"/>
                            <mxPoint x="1650" y="650"/>
                        </Array>
                    </mxGeometry>
                </mxCell>
                <mxCell id="220" value="1,1" style="edgeLabel;html=1;align=center;verticalAlign=middle;resizable=0;points=[];fontSize=12;fontFamily=Helvetica;fontColor=default;" vertex="1" connectable="0" parent="107">
                    <mxGeometry x="0.9729" y="-1" relative="1" as="geometry">
                        <mxPoint x="-52" y="644" as="offset"/>
                    </mxGeometry>
                </mxCell>
                <mxCell id="108" value="" style="endArrow=none;html=1;" edge="1" parent="1" source="105" target="193">
                    <mxGeometry width="50" height="50" relative="1" as="geometry">
                        <mxPoint x="1352.3880597014927" y="799.3283582089553" as="sourcePoint"/>
                        <mxPoint x="990" y="925" as="targetPoint"/>
                    </mxGeometry>
                </mxCell>
                <mxCell id="218" value="0,N" style="edgeLabel;html=1;align=center;verticalAlign=middle;resizable=0;points=[];fontSize=12;fontFamily=Helvetica;fontColor=default;" vertex="1" connectable="0" parent="108">
                    <mxGeometry x="0.7869" y="4" relative="1" as="geometry">
                        <mxPoint y="-14" as="offset"/>
                    </mxGeometry>
                </mxCell>
                <mxCell id="109" value="atualiza" style="rhombus;whiteSpace=wrap;html=1;" vertex="1" parent="1">
                    <mxGeometry x="565" y="890" width="100" height="70" as="geometry"/>
                </mxCell>
                <mxCell id="110" value="" style="endArrow=none;html=1;" edge="1" parent="1" source="109" target="19">
                    <mxGeometry width="50" height="50" relative="1" as="geometry">
                        <mxPoint x="1140" y="710" as="sourcePoint"/>
                        <mxPoint x="490" y="710" as="targetPoint"/>
                        <Array as="points">
                            <mxPoint x="330" y="735"/>
                        </Array>
                    </mxGeometry>
                </mxCell>
                <mxCell id="236" value="1,1" style="edgeLabel;html=1;align=center;verticalAlign=middle;resizable=0;points=[];fontSize=12;fontFamily=Helvetica;fontColor=default;" vertex="1" connectable="0" parent="110">
                    <mxGeometry x="-0.906" y="1" relative="1" as="geometry">
                        <mxPoint x="13" y="-4" as="offset"/>
                    </mxGeometry>
                </mxCell>
                <mxCell id="111" value="" style="endArrow=none;html=1;" edge="1" parent="1" source="193" target="109">
                    <mxGeometry width="50" height="50" relative="1" as="geometry">
                        <mxPoint x="880" y="925" as="sourcePoint"/>
                        <mxPoint x="490" y="710" as="targetPoint"/>
                    </mxGeometry>
                </mxCell>
                <mxCell id="235" value="0,N" style="edgeLabel;html=1;align=center;verticalAlign=middle;resizable=0;points=[];fontSize=12;fontFamily=Helvetica;fontColor=default;" vertex="1" connectable="0" parent="111">
                    <mxGeometry x="-0.7978" y="4" relative="1" as="geometry">
                        <mxPoint x="-3" y="-14" as="offset"/>
                    </mxGeometry>
                </mxCell>
                <mxCell id="115" value="0,1" style="shape=link;html=1;movable=1;resizable=1;rotatable=1;deletable=1;editable=1;connectable=1;" edge="1" parent="1" source="120" target="116">
                    <mxGeometry x="-0.6367" y="16" width="100" relative="1" as="geometry">
                        <mxPoint x="912.5" y="584.7142857142858" as="sourcePoint"/>
                        <mxPoint x="990" y="645" as="targetPoint"/>
                        <mxPoint as="offset"/>
                    </mxGeometry>
                </mxCell>
                <mxCell id="120" value="ACOMPANHANTE" style="shape=ext;double=1;rounded=0;whiteSpace=wrap;html=1;strokeColor=default;fontFamily=Helvetica;fontSize=12;fontColor=default;fillColor=default;" vertex="1" parent="1">
                    <mxGeometry x="800" y="545" width="110" height="45" as="geometry"/>
                </mxCell>
                <mxCell id="123" value="Nome" style="ellipse;whiteSpace=wrap;html=1;rotation=0;" vertex="1" parent="1">
                    <mxGeometry x="1205" y="775" width="80" height="40" as="geometry"/>
                </mxCell>
                <mxCell id="124" value="Telefone" style="ellipse;shape=doubleEllipse;whiteSpace=wrap;html=1;" vertex="1" parent="1">
                    <mxGeometry x="1110" y="805" width="95" height="50" as="geometry"/>
                </mxCell>
                <mxCell id="125" value="&lt;u&gt;Id_paciente&lt;/u&gt;" style="ellipse;whiteSpace=wrap;html=1;rotation=0;" vertex="1" parent="1">
                    <mxGeometry x="1250" y="615" width="80" height="40" as="geometry"/>
                </mxCell>
                <mxCell id="126" value="" style="endArrow=none;html=1;" edge="1" parent="1" source="125" target="12">
                    <mxGeometry width="50" height="50" relative="1" as="geometry">
                        <mxPoint x="1330" y="710" as="sourcePoint"/>
                        <mxPoint x="1250" y="710" as="targetPoint"/>
                    </mxGeometry>
                </mxCell>
                <mxCell id="127" value="" style="endArrow=none;html=1;" edge="1" parent="1" source="123" target="12">
                    <mxGeometry width="50" height="50" relative="1" as="geometry">
                        <mxPoint x="1275.0121980978229" y="660.6173761888608" as="sourcePoint"/>
                        <mxPoint x="1227.3076923076924" y="690" as="targetPoint"/>
                    </mxGeometry>
                </mxCell>
                <mxCell id="128" value="" style="endArrow=none;html=1;" edge="1" parent="1" source="124" target="12">
                    <mxGeometry width="50" height="50" relative="1" as="geometry">
                        <mxPoint x="1243.0400252003342" y="785.9149338303205" as="sourcePoint"/>
                        <mxPoint x="1207.6315789473683" y="730" as="targetPoint"/>
                    </mxGeometry>
                </mxCell>
                <mxCell id="129" value="TRIAGEM" style="shape=ext;double=1;rounded=0;whiteSpace=wrap;html=1;strokeColor=default;fontFamily=Helvetica;fontSize=12;fontColor=default;fillColor=default;" vertex="1" parent="1">
                    <mxGeometry x="1510" y="782.5" width="110" height="45" as="geometry"/>
                </mxCell>
                <mxCell id="131" value="1,1" style="shape=link;html=1;" edge="1" parent="1" source="30" target="129">
                    <mxGeometry x="0.7778" y="10" width="100" relative="1" as="geometry">
                        <mxPoint x="920" y="595.5714285714287" as="sourcePoint"/>
                        <mxPoint x="1002.1156211562115" y="622.5522755227553" as="targetPoint"/>
                        <mxPoint as="offset"/>
                    </mxGeometry>
                </mxCell>
                <mxCell id="132" value="Sitomas" style="ellipse;whiteSpace=wrap;html=1;rotation=0;" vertex="1" parent="1">
                    <mxGeometry x="1525" y="865" width="80" height="40" as="geometry"/>
                </mxCell>
                <mxCell id="133" value="" style="endArrow=none;html=1;" edge="1" parent="1" source="132" target="129">
                    <mxGeometry width="50" height="50" relative="1" as="geometry">
                        <mxPoint x="1567.9166666666665" y="690" as="sourcePoint"/>
                        <mxPoint x="1499.9332220367278" y="498.0467445742904" as="targetPoint"/>
                    </mxGeometry>
                </mxCell>
                <mxCell id="134" value="Nome" style="ellipse;whiteSpace=wrap;html=1;rotation=0;" vertex="1" parent="1">
                    <mxGeometry x="1270" y="145" width="80" height="40" as="geometry"/>
                </mxCell>
                <mxCell id="135" value="&lt;u&gt;CRM&lt;/u&gt;" style="ellipse;whiteSpace=wrap;html=1;rotation=0;" vertex="1" parent="1">
                    <mxGeometry x="1345" y="105" width="80" height="40" as="geometry"/>
                </mxCell>
                <mxCell id="136" value="Especialização" style="ellipse;whiteSpace=wrap;html=1;rotation=0;" vertex="1" parent="1">
                    <mxGeometry x="1425" y="125" width="80" height="40" as="geometry"/>
                </mxCell>
                <mxCell id="137" value="" style="endArrow=none;html=1;" edge="1" parent="1" source="134" target="14">
                    <mxGeometry width="50" height="50" relative="1" as="geometry">
                        <mxPoint x="1450" y="250" as="sourcePoint"/>
                        <mxPoint x="1540" y="250" as="targetPoint"/>
                    </mxGeometry>
                </mxCell>
                <mxCell id="138" value="" style="endArrow=none;html=1;" edge="1" parent="1" source="14" target="135">
                    <mxGeometry width="50" height="50" relative="1" as="geometry">
                        <mxPoint x="1337.8885438199982" y="192.88854381999818" as="sourcePoint"/>
                        <mxPoint x="1375" y="230" as="targetPoint"/>
                    </mxGeometry>
                </mxCell>
                <mxCell id="139" value="" style="endArrow=none;html=1;" edge="1" parent="1" source="14" target="136">
                    <mxGeometry width="50" height="50" relative="1" as="geometry">
                        <mxPoint x="1347.8885438199982" y="202.88854381999818" as="sourcePoint"/>
                        <mxPoint x="1385" y="240" as="targetPoint"/>
                    </mxGeometry>
                </mxCell>
                <mxCell id="140" value="&lt;u&gt;Id_consulta&lt;/u&gt;" style="ellipse;whiteSpace=wrap;html=1;rotation=0;" vertex="1" parent="1">
                    <mxGeometry x="1430" y="625" width="80" height="40" as="geometry"/>
                </mxCell>
                <mxCell id="141" value="" style="endArrow=none;html=1;" edge="1" parent="1" source="15" target="140">
                    <mxGeometry width="50" height="50" relative="1" as="geometry">
                        <mxPoint x="1567.9166666666665" y="690" as="sourcePoint"/>
                        <mxPoint x="1499.9332220367278" y="498.0467445742904" as="targetPoint"/>
                    </mxGeometry>
                </mxCell>
                <mxCell id="142" value="&lt;u&gt;Numero_leito&lt;/u&gt;" style="ellipse;whiteSpace=wrap;html=1;rotation=0;" vertex="1" parent="1">
                    <mxGeometry x="515" y="530" width="80" height="40" as="geometry"/>
                </mxCell>
                <mxCell id="143" value="Descrição" style="ellipse;whiteSpace=wrap;html=1;rotation=0;" vertex="1" parent="1">
                    <mxGeometry x="680" y="390" width="80" height="40" as="geometry"/>
                </mxCell>
                <mxCell id="144" value="Tipo" style="ellipse;whiteSpace=wrap;html=1;rotation=0;" vertex="1" parent="1">
                    <mxGeometry x="435" y="500" width="80" height="40" as="geometry"/>
                </mxCell>
                <mxCell id="145" value="" style="endArrow=none;html=1;" edge="1" parent="1" source="142" target="18">
                    <mxGeometry width="50" height="50" relative="1" as="geometry">
                        <mxPoint x="630" y="595" as="sourcePoint"/>
                        <mxPoint x="630" y="495" as="targetPoint"/>
                    </mxGeometry>
                </mxCell>
                <mxCell id="146" value="" style="endArrow=none;html=1;" edge="1" parent="1" source="144" target="18">
                    <mxGeometry width="50" height="50" relative="1" as="geometry">
                        <mxPoint x="666.7859830108982" y="526.122832872712" as="sourcePoint"/>
                        <mxPoint x="644.2857142857142" y="495" as="targetPoint"/>
                    </mxGeometry>
                </mxCell>
                <mxCell id="147" value="" style="endArrow=none;html=1;" edge="1" parent="1" source="143" target="18">
                    <mxGeometry width="50" height="50" relative="1" as="geometry">
                        <mxPoint x="676.7859830108982" y="536.122832872712" as="sourcePoint"/>
                        <mxPoint x="654.2857142857142" y="505" as="targetPoint"/>
                    </mxGeometry>
                </mxCell>
                <mxCell id="148" value="Nome" style="ellipse;whiteSpace=wrap;html=1;rotation=0;" vertex="1" parent="1">
                    <mxGeometry x="130" y="385" width="80" height="40" as="geometry"/>
                </mxCell>
                <mxCell id="149" value="&lt;u&gt;COREN&lt;/u&gt;" style="ellipse;whiteSpace=wrap;html=1;rotation=0;" vertex="1" parent="1">
                    <mxGeometry x="90" y="530" width="80" height="40" as="geometry"/>
                </mxCell>
                <mxCell id="150" value="Especialização" style="ellipse;whiteSpace=wrap;html=1;rotation=0;" vertex="1" parent="1">
                    <mxGeometry x="180" y="565" width="80" height="40" as="geometry"/>
                </mxCell>
                <mxCell id="151" value="" style="endArrow=none;html=1;" edge="1" parent="1" source="148" target="19">
                    <mxGeometry width="50" height="50" relative="1" as="geometry">
                        <mxPoint x="390" y="475" as="sourcePoint"/>
                        <mxPoint x="307.5" y="475" as="targetPoint"/>
                    </mxGeometry>
                </mxCell>
                <mxCell id="152" value="" style="endArrow=none;html=1;" edge="1" parent="1" source="150" target="19">
                    <mxGeometry width="50" height="50" relative="1" as="geometry">
                        <mxPoint x="390" y="475" as="sourcePoint"/>
                        <mxPoint x="307.5" y="475" as="targetPoint"/>
                    </mxGeometry>
                </mxCell>
                <mxCell id="153" value="" style="endArrow=none;html=1;" edge="1" parent="1" source="149" target="19">
                    <mxGeometry width="50" height="50" relative="1" as="geometry">
                        <mxPoint x="400" y="485" as="sourcePoint"/>
                        <mxPoint x="317.5" y="485" as="targetPoint"/>
                    </mxGeometry>
                </mxCell>
                <mxCell id="154" value="&lt;u&gt;Id_&lt;br&gt;medicamento&lt;/u&gt;" style="ellipse;whiteSpace=wrap;html=1;rotation=0;" vertex="1" parent="1">
                    <mxGeometry x="10" y="205" width="80" height="50" as="geometry"/>
                </mxCell>
                <mxCell id="155" value="Nome" style="ellipse;whiteSpace=wrap;html=1;rotation=0;" vertex="1" parent="1">
                    <mxGeometry x="130" y="190" width="80" height="40" as="geometry"/>
                </mxCell>
                <mxCell id="156" value="Quant_mg" style="ellipse;whiteSpace=wrap;html=1;rotation=0;" vertex="1" parent="1">
                    <mxGeometry x="100" y="10" width="80" height="40" as="geometry"/>
                </mxCell>
                <mxCell id="157" value="Lote" style="ellipse;whiteSpace=wrap;html=1;rotation=0;" vertex="1" parent="1">
                    <mxGeometry x="180" y="120" width="80" height="40" as="geometry"/>
                </mxCell>
                <mxCell id="158" value="Data_validade" style="ellipse;whiteSpace=wrap;html=1;rotation=0;" vertex="1" parent="1">
                    <mxGeometry x="202.5" y="15" width="80" height="40" as="geometry"/>
                </mxCell>
                <mxCell id="159" value="Aplicação" style="ellipse;whiteSpace=wrap;html=1;rotation=0;" vertex="1" parent="1">
                    <mxGeometry y="15" width="80" height="40" as="geometry"/>
                </mxCell>
                <mxCell id="160" value="" style="endArrow=none;html=1;" edge="1" parent="1" source="159" target="20">
                    <mxGeometry width="50" height="50" relative="1" as="geometry">
                        <mxPoint x="165" y="65" as="sourcePoint"/>
                        <mxPoint x="242.5" y="65" as="targetPoint"/>
                    </mxGeometry>
                </mxCell>
                <mxCell id="161" value="" style="endArrow=none;html=1;" edge="1" parent="1" source="158" target="20">
                    <mxGeometry width="50" height="50" relative="1" as="geometry">
                        <mxPoint x="126.01985123916029" y="-15.09925619580099" as="sourcePoint"/>
                        <mxPoint x="114" y="45" as="targetPoint"/>
                    </mxGeometry>
                </mxCell>
                <mxCell id="162" value="" style="endArrow=none;html=1;" edge="1" parent="1" source="157" target="20">
                    <mxGeometry width="50" height="50" relative="1" as="geometry">
                        <mxPoint x="136.0198512391603" y="-5.09925619580099" as="sourcePoint"/>
                        <mxPoint x="124" y="55" as="targetPoint"/>
                    </mxGeometry>
                </mxCell>
                <mxCell id="163" value="" style="endArrow=none;html=1;" edge="1" parent="1" source="156" target="20">
                    <mxGeometry width="50" height="50" relative="1" as="geometry">
                        <mxPoint x="146.0198512391603" y="4.90074380419901" as="sourcePoint"/>
                        <mxPoint x="134" y="65" as="targetPoint"/>
                    </mxGeometry>
                </mxCell>
                <mxCell id="164" value="" style="endArrow=none;html=1;" edge="1" parent="1" source="155" target="20">
                    <mxGeometry width="50" height="50" relative="1" as="geometry">
                        <mxPoint x="156.0198512391603" y="14.90074380419901" as="sourcePoint"/>
                        <mxPoint x="144" y="75" as="targetPoint"/>
                    </mxGeometry>
                </mxCell>
                <mxCell id="165" value="" style="endArrow=none;html=1;" edge="1" parent="1" source="154" target="20">
                    <mxGeometry width="50" height="50" relative="1" as="geometry">
                        <mxPoint x="166.0198512391603" y="24.90074380419901" as="sourcePoint"/>
                        <mxPoint x="154" y="85" as="targetPoint"/>
                    </mxGeometry>
                </mxCell>
                <mxCell id="166" value="&lt;u&gt;Id_farmacia&lt;br&gt;&lt;/u&gt;" style="ellipse;whiteSpace=wrap;html=1;rotation=0;" vertex="1" parent="1">
                    <mxGeometry x="370" y="145" width="80" height="50" as="geometry"/>
                </mxCell>
                <mxCell id="167" value="" style="endArrow=none;html=1;" edge="1" parent="1" source="166" target="21">
                    <mxGeometry width="50" height="50" relative="1" as="geometry">
                        <mxPoint x="200.51383439198162" y="106.48550742965813" as="sourcePoint"/>
                        <mxPoint x="153.6363636363635" y="85" as="targetPoint"/>
                    </mxGeometry>
                </mxCell>
                <mxCell id="168" value="&lt;u&gt;Id_equipe&lt;br&gt;&lt;/u&gt;" style="ellipse;whiteSpace=wrap;html=1;rotation=0;" vertex="1" parent="1">
                    <mxGeometry x="360" y="30" width="80" height="40" as="geometry"/>
                </mxCell>
                <mxCell id="169" value="Num_leito" style="ellipse;whiteSpace=wrap;html=1;rotation=0;" vertex="1" parent="1">
                    <mxGeometry x="475" y="10" width="80" height="40" as="geometry"/>
                </mxCell>
                <mxCell id="170" value="Data" style="ellipse;shape=doubleEllipse;whiteSpace=wrap;html=1;" vertex="1" parent="1">
                    <mxGeometry x="595" y="40" width="95" height="50" as="geometry"/>
                </mxCell>
                <mxCell id="171" value="" style="endArrow=none;html=1;" edge="1" parent="1" source="168" target="22">
                    <mxGeometry width="50" height="50" relative="1" as="geometry">
                        <mxPoint x="525" y="110" as="sourcePoint"/>
                        <mxPoint x="525" y="240" as="targetPoint"/>
                    </mxGeometry>
                </mxCell>
                <mxCell id="172" value="" style="endArrow=none;html=1;" edge="1" parent="1" source="169" target="22">
                    <mxGeometry width="50" height="50" relative="1" as="geometry">
                        <mxPoint x="429.8022281208687" y="36.67505621048588" as="sourcePoint"/>
                        <mxPoint x="489.2857142857142" y="70" as="targetPoint"/>
                    </mxGeometry>
                </mxCell>
                <mxCell id="173" value="" style="endArrow=none;html=1;" edge="1" parent="1" source="170" target="22">
                    <mxGeometry width="50" height="50" relative="1" as="geometry">
                        <mxPoint x="525" y="25" as="sourcePoint"/>
                        <mxPoint x="525" y="70" as="targetPoint"/>
                    </mxGeometry>
                </mxCell>
                <mxCell id="174" value="&lt;u&gt;Id_restaurante&lt;br&gt;&lt;/u&gt;" style="ellipse;whiteSpace=wrap;html=1;rotation=0;" vertex="1" parent="1">
                    <mxGeometry x="930" y="215" width="80" height="50" as="geometry"/>
                </mxCell>
                <mxCell id="175" value="Tipo_refeição" style="ellipse;whiteSpace=wrap;html=1;rotation=0;" vertex="1" parent="1">
                    <mxGeometry x="970" y="285" width="80" height="40" as="geometry"/>
                </mxCell>
                <mxCell id="176" value="" style="endArrow=none;html=1;" edge="1" parent="1" source="175" target="24">
                    <mxGeometry width="50" height="50" relative="1" as="geometry">
                        <mxPoint x="988.5412262156447" y="405.02114164904856" as="sourcePoint"/>
                        <mxPoint x="886.4814814814813" y="310" as="targetPoint"/>
                    </mxGeometry>
                </mxCell>
                <mxCell id="177" value="" style="endArrow=none;html=1;" edge="1" parent="1" source="174" target="24">
                    <mxGeometry width="50" height="50" relative="1" as="geometry">
                        <mxPoint x="981.903034112027" y="308.90448545792424" as="sourcePoint"/>
                        <mxPoint x="920" y="298.8709677419354" as="targetPoint"/>
                    </mxGeometry>
                </mxCell>
                <mxCell id="179" value="Nome" style="ellipse;whiteSpace=wrap;html=1;rotation=0;" vertex="1" parent="1">
                    <mxGeometry x="665" y="540" width="80" height="40" as="geometry"/>
                </mxCell>
                <mxCell id="180" value="Idade" style="ellipse;whiteSpace=wrap;html=1;rotation=0;" vertex="1" parent="1">
                    <mxGeometry x="720" y="475" width="80" height="40" as="geometry"/>
                </mxCell>
                <mxCell id="181" value="Sexo" style="ellipse;whiteSpace=wrap;html=1;rotation=0;" vertex="1" parent="1">
                    <mxGeometry x="850" y="615" width="80" height="40" as="geometry"/>
                </mxCell>
                <mxCell id="182" value="Grau_&lt;br&gt;parentesco" style="ellipse;whiteSpace=wrap;html=1;rotation=0;" vertex="1" parent="1">
                    <mxGeometry x="890" y="440" width="80" height="40" as="geometry"/>
                </mxCell>
                <mxCell id="183" value="Endereço" style="ellipse;whiteSpace=wrap;html=1;rotation=0;" vertex="1" parent="1">
                    <mxGeometry x="930" y="515" width="80" height="40" as="geometry"/>
                </mxCell>
                <mxCell id="184" value="Telefone" style="ellipse;shape=doubleEllipse;whiteSpace=wrap;html=1;" vertex="1" parent="1">
                    <mxGeometry x="705" y="600" width="95" height="50" as="geometry"/>
                </mxCell>
                <mxCell id="186" value="" style="endArrow=none;html=1;" edge="1" parent="1" source="181" target="120">
                    <mxGeometry width="50" height="50" relative="1" as="geometry">
                        <mxPoint x="865" y="460" as="sourcePoint"/>
                        <mxPoint x="865" y="555" as="targetPoint"/>
                    </mxGeometry>
                </mxCell>
                <mxCell id="187" value="" style="endArrow=none;html=1;" edge="1" parent="1" source="120" target="183">
                    <mxGeometry width="50" height="50" relative="1" as="geometry">
                        <mxPoint x="802.6491106406734" y="483.97366596100983" as="sourcePoint"/>
                        <mxPoint x="850" y="555" as="targetPoint"/>
                    </mxGeometry>
                </mxCell>
                <mxCell id="188" value="" style="endArrow=none;html=1;entryX=0.5;entryY=1;entryDx=0;entryDy=0;" edge="1" parent="1" source="120" target="182">
                    <mxGeometry width="50" height="50" relative="1" as="geometry">
                        <mxPoint x="919.2631639671572" y="555" as="sourcePoint"/>
                        <mxPoint x="949.0297126855235" y="542.6574217720035" as="targetPoint"/>
                    </mxGeometry>
                </mxCell>
                <mxCell id="189" value="" style="endArrow=none;html=1;" edge="1" parent="1" source="180" target="120">
                    <mxGeometry width="50" height="50" relative="1" as="geometry">
                        <mxPoint x="884.2857142857142" y="555" as="sourcePoint"/>
                        <mxPoint x="940" y="490" as="targetPoint"/>
                    </mxGeometry>
                </mxCell>
                <mxCell id="190" value="" style="endArrow=none;html=1;" edge="1" parent="1" source="179" target="120">
                    <mxGeometry width="50" height="50" relative="1" as="geometry">
                        <mxPoint x="758.2842712474621" y="524.1421356237311" as="sourcePoint"/>
                        <mxPoint x="820" y="555" as="targetPoint"/>
                    </mxGeometry>
                </mxCell>
                <mxCell id="191" value="" style="endArrow=none;html=1;" edge="1" parent="1" source="184" target="120">
                    <mxGeometry width="50" height="50" relative="1" as="geometry">
                        <mxPoint x="754.8589216369783" y="571.678270384715" as="sourcePoint"/>
                        <mxPoint x="810" y="574.75" as="targetPoint"/>
                    </mxGeometry>
                </mxCell>
                <mxCell id="193" value="ESTADO" style="shape=ext;double=1;rounded=0;whiteSpace=wrap;html=1;strokeColor=default;fontFamily=Helvetica;fontSize=12;fontColor=default;fillColor=default;" vertex="1" parent="1">
                    <mxGeometry x="880" y="902.5" width="110" height="45" as="geometry"/>
                </mxCell>
                <mxCell id="194" value="1,1" style="shape=link;html=1;" edge="1" parent="1" source="193" target="192">
                    <mxGeometry x="-0.8484" y="17" width="100" relative="1" as="geometry">
                        <mxPoint x="945" y="1005" as="sourcePoint"/>
                        <mxPoint x="945" y="957.5" as="targetPoint"/>
                        <mxPoint as="offset"/>
                    </mxGeometry>
                </mxCell>
            </root>
        </mxGraphModel>
    </diagram>
</mxfile>